<svg width="80" height="81" viewBox="0 0 80 81" fill="none" xmlns="http://www.w3.org/2000/svg">
<g clip-path="url(#clip0_6_1674)">
<path d="M40 80.5C62.0914 80.5 80 62.5914 80 40.5C80 18.4086 62.0914 0.5 40 0.5C17.9086 0.5 0 18.4086 0 40.5C0 62.5914 17.9086 80.5 40 80.5Z" fill="white"/>
<path d="M40 74.9C58.9986 74.9 74.4 59.4986 74.4 40.5C74.4 21.5014 58.9986 6.09998 40 6.09998C21.0014 6.09998 5.59998 21.5014 5.59998 40.5C5.59998 59.4986 21.0014 74.9 40 74.9Z" fill="#EE1C25"/>
<path d="M40.006 31.1238C41.9058 31.1238 43.446 29.5836 43.446 27.6838C43.446 25.7839 41.9058 24.2438 40.006 24.2438C38.1061 24.2438 36.566 25.7839 36.566 27.6838C36.566 29.5836 38.1061 31.1238 40.006 31.1238Z" fill="white"/>
<path d="M59.8713 37.1639C61.7711 37.1639 63.3112 35.6237 63.3112 33.7239C63.3112 31.824 61.7711 30.2839 59.8713 30.2839C57.9714 30.2839 56.4313 31.824 56.4313 33.7239C56.4313 35.6237 57.9714 37.1639 59.8713 37.1639Z" fill="white"/>
<path d="M20.1275 37.1639C22.0274 37.1639 23.5675 35.6237 23.5675 33.7239C23.5675 31.824 22.0274 30.2839 20.1275 30.2839C18.2276 30.2839 16.6875 31.824 16.6875 33.7239C16.6875 35.6237 18.2276 37.1639 20.1275 37.1639Z" fill="white"/>
<path d="M57.0079 58.3428H22.5781L19.8558 37.7644L30.8055 44.9947L40.0003 31.6465L48.7114 44.9947L59.6003 37.7644L57.0079 58.3428Z" fill="white"/>
</g>
<defs>
<clipPath id="clip0_6_1674">
<rect width="80" height="80" fill="white" transform="translate(0 0.5)"/>
</clipPath>
</defs>
</svg>
