<svg width="60" height="61" viewBox="0 0 60 61" fill="none" xmlns="http://www.w3.org/2000/svg">
<g clip-path="url(#clip0_6_2108)">
<path d="M53.3154 0.498779L39.5999 5.0656L41.0441 9.40268L45.0427 8.07129C37.453 23.1897 30.4123 31.96 16.8012 34.7723L16.7004 40.821C31.8478 37.6908 40.3957 27.7258 48.3167 12.5813C50.495 17.0646 52.9154 26.005 46.9366 38.2787L51.4069 40.4563C56.9775 29.0206 56.426 19.8897 54.9829 14.2428C54.2195 11.1763 53.0033 8.38004 51.3845 5.95966L54.7597 4.83586L53.3154 0.498779Z" fill="white"/>
<path d="M26.4 47.3C26.4 54.5901 20.4902 60.5 13.2 60.5C5.90984 60.5 0 54.5901 0 47.3C0 40.0098 5.90984 34.1 13.2 34.1C20.4902 34.1 26.4 40.0098 26.4 47.3Z" fill="#EE1C25"/>
<path d="M60 47.3C60 54.5901 54.0902 60.5 46.8 60.5C39.5098 60.5 33.6 54.5901 33.6 47.3C33.6 40.0098 39.5098 34.1 46.8 34.1C54.0902 34.1 60 40.0098 60 47.3Z" fill="#EE1C25"/>
<circle cx="9.77995" cy="39.08" r="2.58" fill="white"/>
<circle cx="44.58" cy="39.08" r="2.58" fill="white"/>
<path d="M46.4032 5.58798C45.1943 12.9567 35.6006 27.2629 6.89644 25.5373C9.76567 15.1948 21.684 -3.2746 46.4032 5.58798Z" fill="#F7941D"/>
</g>
<defs>
<clipPath id="clip0_6_2108">
<rect width="60" height="60" fill="white" transform="translate(0 0.5)"/>
</clipPath>
</defs>
</svg>
