<svg width="60" height="61" viewBox="0 0 60 61" fill="none" xmlns="http://www.w3.org/2000/svg">
<g clip-path="url(#clip0_6_2101)">
<rect width="27.2271" height="48.0434" rx="1.70861" transform="matrix(0.965209 -0.261481 0.262609 0.964902 0 7.62036)" fill="#F7941D"/>
<rect width="28.3459" height="46.1902" rx="1.70861" transform="matrix(0.960669 0.277698 -0.278885 0.960325 32.4961 0.5)" fill="#F7941D"/>
<rect x="12" y="8.90002" width="35.7524" height="51.6" rx="1.70861" fill="#EE1C25"/>
<circle cx="17.4792" cy="14.2128" r="2.58" fill="white"/>
<circle cx="42.2503" cy="55.3082" r="2.58" fill="white"/>
<path d="M29.8777 25.4819L29.8741 25.4847C26.7833 27.829 21.6411 31.9065 21.4134 35.8793C21.2464 38.7925 22.9385 40.3217 24.8436 40.5682C27.0204 40.85 28.4977 39.8033 29.4194 38.8031C28.8691 40.2568 27.7442 42.4557 25.643 43.918H34.1086C32.0065 42.4551 30.8816 40.255 30.3316 38.8013C31.2533 39.8021 32.731 40.8501 34.9091 40.5682C36.8142 40.3217 38.5063 38.7925 38.3393 35.8793C38.1116 31.9065 32.9694 27.829 29.8786 25.4847L29.8777 25.4819Z" fill="white"/>
</g>
<defs>
<clipPath id="clip0_6_2101">
<rect width="60" height="60" fill="white" transform="translate(0 0.5)"/>
</clipPath>
</defs>
</svg>
