<svg width="60" height="61" viewBox="0 0 60 61" fill="none" xmlns="http://www.w3.org/2000/svg">
<g clip-path="url(#clip0_6_1963)">
<path d="M30 60.5C46.5685 60.5 60 47.0685 60 30.5C60 13.9315 46.5685 0.5 30 0.5C13.4315 0.5 0 13.9315 0 30.5C0 47.0685 13.4315 60.5 30 60.5Z" fill="white"/>
<path d="M30 56.2999C44.2489 56.2999 55.7999 44.7489 55.7999 30.5C55.7999 16.251 44.2489 4.69995 30 4.69995C15.751 4.69995 4.19995 16.251 4.19995 30.5C4.19995 44.7489 15.751 56.2999 30 56.2999Z" fill="#EE1C25"/>
<path d="M30.0045 23.4679C31.4294 23.4679 32.5845 22.3128 32.5845 20.8879C32.5845 19.463 31.4294 18.3079 30.0045 18.3079C28.5796 18.3079 27.4245 19.463 27.4245 20.8879C27.4245 22.3128 28.5796 23.4679 30.0045 23.4679Z" fill="white"/>
<path d="M44.9034 27.9979C46.3283 27.9979 47.4834 26.8428 47.4834 25.4179C47.4834 23.993 46.3283 22.8379 44.9034 22.8379C43.4785 22.8379 42.3234 23.993 42.3234 25.4179C42.3234 26.8428 43.4785 27.9979 44.9034 27.9979Z" fill="white"/>
<path d="M15.0956 27.9979C16.5205 27.9979 17.6756 26.8428 17.6756 25.4179C17.6756 23.993 16.5205 22.8379 15.0956 22.8379C13.6707 22.8379 12.5156 23.993 12.5156 25.4179C12.5156 26.8428 13.6707 27.9979 15.0956 27.9979Z" fill="white"/>
<path d="M42.7559 43.8822H16.9335L14.8919 28.4484L23.1041 33.871L30.0002 23.8599L36.5335 33.871L44.7002 28.4484L42.7559 43.8822Z" fill="white"/>
</g>
<defs>
<clipPath id="clip0_6_1963">
<rect width="60" height="60" fill="white" transform="translate(0 0.5)"/>
</clipPath>
</defs>
</svg>
