<svg width="60" height="61" viewBox="0 0 60 61" fill="none" xmlns="http://www.w3.org/2000/svg">
<g clip-path="url(#clip0_6_2093)">
<path d="M29.8741 53.9118C29.9154 53.9133 29.9582 53.9133 30 53.9133C42.8817 53.9133 53.3435 43.5071 53.4118 30.6259C53.4133 30.5841 53.4133 30.5413 53.4133 30.5C53.4138 17.5691 42.9309 7.08618 30 7.08667C29.9582 7.08667 29.9154 7.08667 29.8741 7.08766C16.9919 7.15503 6.5852 17.6178 6.58667 30.5C6.58667 30.5413 6.58667 30.5841 6.58766 30.6259C6.65503 43.4584 17.0416 53.845 29.8741 53.9118ZM30 0.5C46.5685 0.5 60 13.9315 60 30.5C60 47.0685 46.5685 60.5 30 60.5C13.4315 60.5 0 47.0685 0 30.5C0 13.9315 13.4315 0.5 30 0.5Z" fill="#EE1C25"/>
<path d="M40.4049 41.0938C37.6318 43.8266 33.8934 45.356 30.0002 45.3505C29.9584 45.3505 29.9156 45.3505 29.8743 45.3491C21.7715 45.2802 15.2202 38.7285 15.1514 30.6262C15.1499 30.5844 15.1499 30.5416 15.1499 30.5003C15.1514 22.3483 21.7228 15.7213 29.8743 15.6515C29.9156 15.65 29.9584 15.65 30.0002 15.65C38.2018 15.65 44.8504 22.2987 44.8504 30.5003C44.8504 30.5416 44.8504 30.5844 44.8489 30.6262C44.8214 34.5681 43.2222 38.336 40.4049 41.0938ZM29.8743 33.8123C29.9156 33.8138 29.9584 33.8148 30.0002 33.8148C31.7818 33.8153 33.2453 32.4068 33.3122 30.6262C33.3137 30.5844 33.3146 30.5416 33.3146 30.5003C33.3146 28.6694 31.8305 27.1858 30.0002 27.1853C29.9584 27.1853 29.9156 27.1868 29.8743 27.1878C28.0936 27.2551 26.6847 28.7181 26.6852 30.5003C26.6852 30.5416 26.6867 30.5844 26.6876 30.6262C26.754 32.3577 28.1428 33.7464 29.8743 33.8123Z" fill="#EE1C25"/>
<path d="M29.8748 15.6518C25.9328 15.6789 22.1644 17.2786 19.4066 20.0954L13.35 14.0388C17.7135 9.61444 23.6608 7.11285 29.8748 7.08826V15.6518Z" fill="#F7941D"/>
<path d="M53.4123 30.6268C53.4138 30.585 53.4138 30.5422 53.4138 30.5009C53.4216 24.2742 50.9417 18.3022 46.5247 13.9133L46.4947 13.9437L40.4696 19.9688C43.278 22.7532 44.8556 26.5457 44.8507 30.5009C44.8507 30.5422 44.8507 30.585 44.8492 30.6268H53.4123Z" fill="#F7941D"/>
<path d="M46.4608 47.1503L46.4318 47.1203L40.4053 41.0937C37.6322 43.8265 33.8938 45.3558 30.0006 45.3504C29.9587 45.3504 29.916 45.3504 29.8747 45.349V53.912C29.916 53.9135 29.9587 53.9135 30.0006 53.9135C36.1653 53.9219 42.0827 51.4906 46.4608 47.1503Z" fill="#F7941D"/>
<path d="M19.432 41.0047L19.4684 40.9698C16.7283 38.2218 15.1773 34.507 15.1507 30.6265H6.58716C6.61175 36.7785 9.06466 42.6723 13.4118 47.0249L19.432 41.0047Z" fill="#F7941D"/>
<path d="M46.4947 13.9421L46.5247 13.9116C42.1407 9.53346 36.1962 7.07809 30.0005 7.08596C29.9587 7.08596 29.9159 7.08596 29.8746 7.08694V15.6505C29.9159 15.649 29.9587 15.649 30.0005 15.649C33.9243 15.6441 37.6902 17.1971 40.4696 19.9672L46.4947 13.9421Z" fill="white"/>
<path d="M53.4122 30.6266H44.8491C44.8216 34.5685 43.2224 38.3364 40.4051 41.0942L46.4316 47.1208L46.4606 47.1508C50.886 42.7884 53.3881 36.8405 53.4122 30.6266Z" fill="white"/>
<path d="M29.8739 53.9122C23.6909 53.8877 17.7701 51.4106 13.4121 47.0246L19.4323 41.0044L19.4687 40.9695C22.2216 43.7475 25.9629 45.3221 29.8739 45.3492V53.9122Z" fill="white"/>
<path d="M19.4052 20.0941L13.3487 14.0375C9.00887 18.4162 6.5776 24.334 6.58596 30.4993C6.58596 30.5406 6.58596 30.5834 6.58694 30.6252H15.1505C15.149 30.5834 15.149 30.5406 15.149 30.4993C15.1436 26.606 16.673 22.8676 19.4052 20.0941Z" fill="white"/>
<path d="M28.3781 25.4281C28.3781 26.2144 29.0134 26.852 29.797 26.852C30.5806 26.852 31.2159 26.2144 31.2159 25.4281V20.9785C31.2159 20.1922 30.5806 19.5547 29.797 19.5547C29.0134 19.5547 28.3781 20.1922 28.3781 20.9785V25.4281Z" fill="white"/>
<path d="M28.3781 40.0226C28.3781 40.809 29.0134 41.4465 29.797 41.4465C30.5806 41.4465 31.2159 40.809 31.2159 40.0226V35.5731C31.2159 34.7868 30.5806 34.1492 29.797 34.1492C29.0134 34.1492 28.3781 34.7868 28.3781 35.5731V40.0226Z" fill="white"/>
<path d="M39.5214 32.1214H35.0719C34.2855 32.1214 33.648 31.4861 33.648 30.7025C33.648 29.9189 34.2855 29.2836 35.0719 29.2836H39.5214C40.3077 29.2836 40.9453 29.9189 40.9453 30.7025C40.9453 31.4861 40.3077 32.1214 39.5214 32.1214Z" fill="white"/>
<path d="M20.4773 32.1214H24.9269C25.7132 32.1214 26.3507 31.4861 26.3507 30.7025C26.3507 29.9189 25.7132 29.2836 24.9269 29.2836H20.4773C19.691 29.2836 19.0535 29.9189 19.0535 30.7025C19.0535 31.4861 19.691 32.1214 20.4773 32.1214Z" fill="white"/>
<path d="M30.0005 24.0125C29.9245 24.0125 29.8463 24.0147 29.7703 24.0169L29.8116 25.5283L29.7666 24.0169H29.7555C26.2652 24.1357 23.5012 27.0066 23.5137 30.4989C23.5137 30.5764 23.5159 30.6561 23.5189 30.7447C23.6591 34.1344 26.3796 36.8488 29.7703 36.9809C29.8463 36.9831 29.9245 36.9853 30.0005 36.9853C33.496 36.9972 36.367 34.2274 36.4822 30.7343C36.4844 30.6568 36.4866 30.5771 36.4866 30.4996C36.4829 26.9188 33.5816 24.0169 30.0005 24.0125Z" fill="white"/>
<circle cx="37.2746" cy="48.1457" r="2.58" fill="white"/>
</g>
<defs>
<clipPath id="clip0_6_2093">
<rect width="60" height="60" fill="white" transform="translate(0 0.5)"/>
</clipPath>
</defs>
</svg>
