<svg width="17" height="17" viewBox="0 0 17 17" fill="none" xmlns="http://www.w3.org/2000/svg">
<path fill-rule="evenodd" clip-rule="evenodd" d="M0 7.66467C0 3.43159 3.43159 0 7.66467 0C11.8977 0 15.3293 3.43159 15.3293 7.66467C15.3293 9.22685 14.862 10.6799 14.0595 11.8916L16.4133 14.2454C17.0119 14.844 17.0119 15.8146 16.4133 16.4133C15.8146 17.0119 14.844 17.0119 14.2454 16.4133L11.8916 14.0595C10.6799 14.862 9.22685 15.3293 7.66467 15.3293C3.43159 15.3293 0 11.8977 0 7.66467ZM11.0082 10.8222C10.9749 10.8503 10.9426 10.8799 10.9113 10.9113C10.8799 10.9426 10.8503 10.9749 10.8222 11.0082C9.99848 11.7864 8.88729 12.2635 7.66467 12.2635C5.12482 12.2635 3.06587 10.2045 3.06587 7.66467C3.06587 5.12482 5.12482 3.06587 7.66467 3.06587C10.2045 3.06587 12.2635 5.12482 12.2635 7.66467C12.2635 8.88729 11.7864 9.99848 11.0082 10.8222Z" fill="#EE1C25"/>
</svg>
